<?xml version="1.0" encoding="UTF-8" standalone="no"?>
<!-- Created with Inkscape (http://www.inkscape.org/) -->

<svg
   xmlns:dc="http://purl.org/dc/elements/1.1/"
   xmlns:cc="http://creativecommons.org/ns#"
   xmlns:rdf="http://www.w3.org/1999/02/22-rdf-syntax-ns#"
   xmlns:svg="http://www.w3.org/2000/svg"
   xmlns="http://www.w3.org/2000/svg"
   xmlns:sodipodi="http://sodipodi.sourceforge.net/DTD/sodipodi-0.dtd"
   xmlns:inkscape="http://www.inkscape.org/namespaces/inkscape"
   width="15mm"
   height="15mm"
   viewBox="0 0 15 15"
   version="1.1"
   id="svg4552"
   inkscape:version="0.92.3 (2405546, 2018-03-11)"
   sodipodi:docname="cloudy.svg">
  <defs
     id="defs4546" />
  <sodipodi:namedview
     id="base"
     pagecolor="#ffffff"
     bordercolor="#666666"
     borderopacity="1.0"
     inkscape:pageopacity="0.0"
     inkscape:pageshadow="2"
     inkscape:zoom="3.959798"
     inkscape:cx="25.868434"
     inkscape:cy="9.7605536"
     inkscape:document-units="mm"
     inkscape:current-layer="layer1"
     showgrid="false"
     fit-margin-top="0"
     fit-margin-left="0.2"
     fit-margin-right="0.2"
     fit-margin-bottom="0"
     inkscape:window-width="927"
     inkscape:window-height="1016"
     inkscape:window-x="993"
     inkscape:window-y="27"
     inkscape:window-maximized="0" />
  <metadata
     id="metadata4549">
    <rdf:RDF>
      <cc:Work
         rdf:about="">
        <dc:format>image/svg+xml</dc:format>
        <dc:type
           rdf:resource="http://purl.org/dc/dcmitype/StillImage" />
        <dc:title></dc:title>
      </cc:Work>
    </rdf:RDF>
  </metadata>
  <g
     inkscape:label="Layer 1"
     inkscape:groupmode="layer"
     id="layer1"
     transform="translate(-47.550876,-94.37987)">
    <path
       id="path74"
       style="fill:#ffffff;fill-opacity:1;fill-rule:nonzero;stroke:none;stroke-width:0.26458332"
       d="m 54.053505,106.46557 5.481174,-2.7e-4 c 0.03638,0 0.07441,0 0.109803,0.004 v -0.004 c 0.895283,0 1.623549,-0.72827 1.623549,-1.62355 0,-0.89528 -0.728266,-1.62355 -1.623549,-1.62355 -0.126339,0 -0.257969,0.0162 -0.391584,0.0493 -0.04332,0.0106 -0.0893,0.003 -0.126669,-0.0222 -0.03704,-0.0248 -0.06218,-0.0638 -0.06912,-0.10815 -0.18124,-1.15524 -1.161852,-1.99397 -2.33098,-1.99397 -1.302742,0 -2.362729,1.05999 -2.362729,2.36306 0,0.0638 0.0046,0.127 0.0096,0.18984 0.004,0.0473 -0.01323,0.0939 -0.04729,0.127 -0.03406,0.0331 -0.08103,0.0489 -0.128323,0.0447 -0.04729,-0.005 -0.09492,-0.008 -0.143867,-0.008 -0.718013,0 -1.302412,0.58473 -1.302412,1.30274 0,0.71834 0.584399,1.30307 1.302412,1.30307 m -0.0086,-2.92464 c 0,-0.0112 -2.65e-4,-0.0228 -2.65e-4,-0.0344 0,-1.47869 1.202862,-2.68189 2.681552,-2.68189 1.271323,0 2.345862,0.87379 2.615076,2.0998 0.102857,-0.0169 0.20406,-0.0248 0.303278,-0.0248 1.071232,0 1.942373,0.87114 1.942373,1.94238 0,1.0709 -0.871141,1.94237 -1.942373,1.94237 h -0.0016 c -0.02381,-2.7e-4 -0.636654,-2.7e-4 -1.447932,-2.7e-4 l -4.141391,2.7e-4 c -0.893961,0 -1.621234,-0.72761 -1.621234,-1.6219 0,-0.89131 0.722312,-1.6166 1.612635,-1.62156"
       inkscape:connector-curvature="0" />
    <path
       id="path78"
       style="fill:#ffffff;fill-opacity:1;fill-rule:nonzero;stroke:none;stroke-width:0.26458332"
       d="m 50.880092,101.93127 c 0,-1.42015 1.155568,-2.575387 2.575388,-2.575387 0.868495,0 1.620243,0.37174 2.098808,1.097027 0.04829,0.0738 0.02811,0.17264 -0.04531,0.22093 -0.07375,0.049 -0.172641,0.0284 -0.220927,-0.045 -0.419365,-0.635663 -1.071893,-0.954155 -1.832571,-0.954155 -1.244203,0 -2.256565,1.012035 -2.256565,2.256565 0,0.77027 0.386953,1.48002 1.034852,1.89773 0.07375,0.048 0.09525,0.14651 0.04729,0.22026 -0.0301,0.0476 -0.08136,0.0731 -0.133614,0.0731 -0.02977,0 -0.05986,-0.008 -0.08665,-0.0254 -0.73918,-0.47691 -1.180704,-1.28654 -1.180704,-2.16562"
       inkscape:connector-curvature="0" />
    <path
       id="path82"
       style="fill:#ffffff;fill-opacity:1;fill-rule:nonzero;stroke:none;stroke-width:0.26458332"
       d="m 53.421582,98.567128 c -0.0883,0 -0.159411,-0.07111 -0.159411,-0.15908 V 97.13441 c 0,-0.08797 0.07111,-0.159081 0.159411,-0.159081 0.08797,0 0.159412,0.07111 0.159412,0.159081 v 1.273638 c 0,0.08797 -0.07144,0.15908 -0.159412,0.15908"
       inkscape:connector-curvature="0" />
    <path
       id="path86"
       style="fill:#ffffff;fill-opacity:1;fill-rule:nonzero;stroke:none;stroke-width:0.26458332"
       d="m 51.677682,99.063553 c -0.02612,0.01622 -0.0549,0.02381 -0.08367,0.02381 -0.05325,0 -0.105503,-0.02679 -0.13593,-0.07541 l -0.670057,-1.082807 c -0.04597,-0.07474 -0.02315,-0.172971 0.05159,-0.219604 0.07507,-0.04597 0.172971,-0.02315 0.219604,0.05192 l 0.670057,1.082477 c 0.04663,0.07507 0.02347,0.172971 -0.05159,0.219604"
       inkscape:connector-curvature="0" />
    <path
       id="path90"
       style="fill:#ffffff;fill-opacity:1;fill-rule:nonzero;stroke:none;stroke-width:0.26458332"
       d="m 50.359594,100.40456 c -0.02514,0 -0.05093,-0.006 -0.07508,-0.0189 l -1.123152,-0.601592 c -0.07772,-0.04134 -0.107156,-0.137914 -0.06549,-0.215635 0.04134,-0.07772 0.137914,-0.107157 0.215967,-0.06549 l 1.123156,0.601597 c 0.07772,0.0417 0.107156,0.13824 0.06515,0.21563 -0.02844,0.0539 -0.08367,0.0843 -0.140559,0.0843"
       inkscape:connector-curvature="0" />
    <path
       id="path94"
       style="fill:#ffffff;fill-opacity:1;fill-rule:nonzero;stroke:none;stroke-width:0.26458332"
       d="m 48.674296,101.71163 h 5.29e-4 l 1.273969,0.004 c 0.0883,0 0.159411,0.0718 0.15908,0.15975 -2.64e-4,0.088 -0.07144,0.15908 -0.159411,0.15908 h -2.65e-4 l -1.273969,-0.004 c -0.0883,-2.7e-4 -0.159411,-0.0721 -0.159411,-0.16041 2.65e-4,-0.0876 0.07144,-0.15842 0.159411,-0.15842"
       inkscape:connector-curvature="0" />
    <path
       id="path98"
       style="fill:#ffffff;fill-opacity:1;fill-rule:nonzero;stroke:none;stroke-width:0.26458332"
       d="m 49.176872,104.01705 1.118526,-0.61152 c 0.07739,-0.042 0.174294,-0.0139 0.216297,0.0638 0.04233,0.0771 0.01389,0.17396 -0.0635,0.21597 l -1.118526,0.61152 c -0.02413,0.0132 -0.05027,0.0192 -0.0764,0.0192 -0.05589,0 -0.110794,-0.0298 -0.139898,-0.083 -0.042,-0.0771 -0.01355,-0.17396 0.0635,-0.21596"
       inkscape:connector-curvature="0" />
    <path
       id="path102"
       style="fill:#ffffff;fill-opacity:1;fill-rule:nonzero;stroke:none;stroke-width:0.26458332"
       d="m 57.665829,99.740521 -1.118526,0.611189 c -0.02447,0.0136 -0.0506,0.0195 -0.0764,0.0195 -0.05622,0 -0.111125,-0.0301 -0.139898,-0.083 -0.04233,-0.0771 -0.01389,-0.17397 0.0635,-0.21597 l 1.118526,-0.611515 c 0.07739,-0.04233 0.173963,-0.01389 0.216296,0.0635 0.042,0.07706 0.01389,0.173963 -0.0635,0.216296"
       inkscape:connector-curvature="0" />
    <path
       id="path106"
       style="fill:#ffffff;fill-opacity:1;fill-rule:nonzero;stroke:none;stroke-width:0.26458332"
       d="m 51.443822,104.74118 c 0.04696,-0.0747 0.144859,-0.0976 0.219935,-0.0503 0.07441,0.0463 0.0969,0.14486 0.05027,0.21927 l -0.675679,1.08082 c -0.0301,0.0483 -0.08235,0.0751 -0.135269,0.0751 -0.0291,0 -0.05821,-0.008 -0.08434,-0.0242 -0.07475,-0.047 -0.09757,-0.14552 -0.0506,-0.21993 l 0.67568,-1.08082 z"
       inkscape:connector-curvature="0" />
    <path
       id="path110"
       style="fill:#ffffff;fill-opacity:1;fill-rule:nonzero;stroke:none;stroke-width:0.26458332"
       d="m 55.398845,99.016722 c -0.0301,0.04829 -0.08235,0.07507 -0.135268,0.07507 -0.02877,0 -0.05788,-0.0079 -0.08434,-0.02447 -0.07475,-0.04663 -0.09723,-0.144859 -0.0506,-0.219935 l 0.676011,-1.080492 c 0.04663,-0.07474 0.144859,-0.09757 0.219604,-0.0506 0.07441,0.04663 0.09723,0.144859 0.05027,0.219604 z"
       inkscape:connector-curvature="0" />
  </g>
</svg>
