<?xml version="1.0" encoding="UTF-8" standalone="no"?>
<!-- Created with Inkscape (http://www.inkscape.org/) -->

<svg
   xmlns:dc="http://purl.org/dc/elements/1.1/"
   xmlns:cc="http://creativecommons.org/ns#"
   xmlns:rdf="http://www.w3.org/1999/02/22-rdf-syntax-ns#"
   xmlns:svg="http://www.w3.org/2000/svg"
   xmlns="http://www.w3.org/2000/svg"
   xmlns:sodipodi="http://sodipodi.sourceforge.net/DTD/sodipodi-0.dtd"
   xmlns:inkscape="http://www.inkscape.org/namespaces/inkscape"
   width="15mm"
   height="15mm"
   viewBox="0 0 15 15"
   version="1.1"
   id="svg4552"
   inkscape:version="0.92.3 (2405546, 2018-03-11)"
   sodipodi:docname="rainLight.svg">
  <defs
     id="defs4546" />
  <sodipodi:namedview
     id="base"
     pagecolor="#ffffff"
     bordercolor="#666666"
     borderopacity="1.0"
     inkscape:pageopacity="0.0"
     inkscape:pageshadow="2"
     inkscape:zoom="3.959798"
     inkscape:cx="25.868434"
     inkscape:cy="9.7605536"
     inkscape:document-units="mm"
     inkscape:current-layer="layer1"
     showgrid="false"
     fit-margin-top="0"
     fit-margin-left="0.2"
     fit-margin-right="0.2"
     fit-margin-bottom="0"
     inkscape:window-width="927"
     inkscape:window-height="1016"
     inkscape:window-x="993"
     inkscape:window-y="27"
     inkscape:window-maximized="0" />
  <metadata
     id="metadata4549">
    <rdf:RDF>
      <cc:Work
         rdf:about="">
        <dc:format>image/svg+xml</dc:format>
        <dc:type
           rdf:resource="http://purl.org/dc/dcmitype/StillImage" />
        <dc:title></dc:title>
      </cc:Work>
    </rdf:RDF>
  </metadata>
  <g
     inkscape:label="Layer 1"
     inkscape:groupmode="layer"
     id="layer1"
     transform="translate(-47.550876,-94.37987)">
    <path
       id="path174"
       style="fill:#ffffff;fill-opacity:1;fill-rule:nonzero;stroke:none;stroke-width:0.26458332"
       d="m 54.156198,104.68438 h 4.916619 c 0.03307,0 0.06714,0 0.09889,0.004 v -0.004 c 0.803672,0 1.456533,-0.65352 1.456533,-1.45653 0,-0.80301 -0.65286,-1.45686 -1.456533,-1.45686 -0.113109,0 -0.23151,0.0152 -0.351234,0.0447 -0.03903,0.009 -0.08037,0.002 -0.113439,-0.0199 -0.03307,-0.0218 -0.05556,-0.0572 -0.06251,-0.0969 -0.162388,-1.03618 -1.041797,-1.788585 -2.090539,-1.788585 -1.169128,0 -2.119973,0.950845 -2.119973,2.119645 0,0.0576 0.0043,0.11377 0.0083,0.16999 0.0043,0.0427 -0.01156,0.0847 -0.04266,0.11444 -0.02977,0.0298 -0.0721,0.0436 -0.114764,0.04 -0.04233,-0.005 -0.08467,-0.007 -0.128653,-0.007 -0.644591,0 -1.169129,0.52421 -1.169129,1.16847 0,0.64459 0.524538,1.16879 1.169129,1.16879 m -0.0079,-2.62334 v -0.0311 c 0,-1.32656 1.079169,-2.405726 2.405724,-2.405726 1.140354,0 2.104098,0.783826 2.345861,1.883506 0.09227,-0.0149 0.183224,-0.0222 0.27186,-0.0222 0.960768,0 1.742612,0.78151 1.742612,1.74228 0,0.96044 -0.781844,1.74228 -1.742612,1.74228 h -0.0011 l -5.014555,3e-5 c -0.802349,0 -1.454547,-0.65253 -1.454547,-1.45455 0,-0.79937 0.648229,-1.45025 1.44661,-1.45455"
       inkscape:connector-curvature="0"
       sodipodi:nodetypes="csccsscccsscccssccsscsssccsc" />
    <path
       id="path178"
       style="fill:#ffffff;fill-opacity:1;fill-rule:nonzero;stroke:none;stroke-width:0.26458332"
       d="m 51.309479,100.61678 c 0,-1.27397 1.036175,-2.310475 2.309813,-2.310475 0.779198,0 1.453555,0.333375 1.883502,0.984581 0.04299,0.06548 0.02513,0.15445 -0.04101,0.197776 -0.06615,0.04399 -0.154119,0.0258 -0.198107,-0.04035 -0.3767,-0.570177 -0.961759,-0.855927 -1.644385,-0.855927 -1.115549,0 -2.024062,0.908182 -2.024062,2.024395 0,0.69089 0.347265,1.32755 0.928356,1.70226 0.06582,0.043 0.08566,0.1313 0.04266,0.19778 -0.02679,0.0427 -0.07342,0.0658 -0.120385,0.0658 -0.02646,0 -0.05391,-0.008 -0.07772,-0.0228 -0.66245,-0.42829 -1.058664,-1.15458 -1.058664,-1.94304"
       inkscape:connector-curvature="0" />
    <path
       id="path182"
       style="fill:#ffffff;fill-opacity:1;fill-rule:nonzero;stroke:none;stroke-width:0.26458332"
       d="m 53.58936,97.599039 c -0.07937,0 -0.143206,-0.06416 -0.143206,-0.143205 v -1.142339 c 0,-0.07904 0.06383,-0.142876 0.143206,-0.142876 0.07871,0 0.142544,0.06383 0.142544,0.142876 v 1.142339 c 0,0.07904 -0.06383,0.143205 -0.142544,0.143205"
       inkscape:connector-curvature="0" />
    <path
       id="path186"
       style="fill:#ffffff;fill-opacity:1;fill-rule:nonzero;stroke:none;stroke-width:0.26458332"
       d="m 52.024548,98.043936 c -0.02315,0.01421 -0.04895,0.02148 -0.07541,0.02148 -0.04762,0 -0.09426,-0.02381 -0.121708,-0.0678 l -0.600932,-0.971016 c -0.04101,-0.06714 -0.0205,-0.155443 0.04663,-0.196784 0.0678,-0.04167 0.155112,-0.02082 0.197115,0.04597 l 0.600273,0.971352 c 0.04266,0.06714 0.02183,0.155443 -0.04597,0.196784"
       inkscape:connector-curvature="0" />
    <path
       id="path190"
       style="fill:#ffffff;fill-opacity:1;fill-rule:nonzero;stroke:none;stroke-width:0.26458332"
       d="m 50.841794,99.247028 c -0.02249,0 -0.04597,-0.0056 -0.06714,-0.01685 l -1.0074,-0.53975 c -0.07012,-0.03704 -0.09657,-0.123692 -0.05854,-0.193476 0.03671,-0.06945 0.123362,-0.09558 0.193146,-0.05854 l 1.007731,0.53975 c 0.06978,0.03704 0.09657,0.123693 0.05887,0.193146 -0.0258,0.04829 -0.07541,0.07574 -0.126669,0.07574"
       inkscape:connector-curvature="0" />
    <path
       id="path194"
       style="fill:#ffffff;fill-opacity:1;fill-rule:nonzero;stroke:none;stroke-width:0.26458332"
       d="m 49.330261,100.41963 h 0.0011 l 1.142339,0.003 c 0.07871,0 0.143867,0.0645 0.143206,0.14321 -7.94e-4,0.079 -0.06449,0.14287 -0.143206,0.14287 h -7.94e-4 l -1.14333,-0.004 c -0.07838,0 -0.142214,-0.0645 -0.142214,-0.14321 0,-0.079 0.06449,-0.14254 0.142874,-0.14254"
       inkscape:connector-curvature="0" />
    <path
       id="path198"
       style="fill:#ffffff;fill-opacity:1;fill-rule:nonzero;stroke:none;stroke-width:0.26458332"
       d="m 49.780815,102.48781 1.004094,-0.54835 c 0.06912,-0.0377 0.156104,-0.0122 0.193807,0.0569 0.03737,0.0694 0.01222,0.15643 -0.05689,0.19414 l -1.004093,0.54868 c -0.02117,0.0116 -0.04465,0.0172 -0.0678,0.0172 -0.0506,0 -0.09922,-0.0268 -0.126008,-0.0744 -0.0377,-0.0691 -0.01156,-0.15644 0.05689,-0.19414"
       inkscape:connector-curvature="0" />
    <path
       id="path202"
       style="fill:#ffffff;fill-opacity:1;fill-rule:nonzero;stroke:none;stroke-width:0.26458332"
       d="m 57.396613,98.651155 -1.003432,0.54868 c -0.02217,0.01191 -0.04531,0.01751 -0.06846,0.01751 -0.05027,0 -0.09922,-0.02679 -0.125346,-0.07474 -0.03737,-0.06912 -0.01222,-0.156104 0.05689,-0.193808 l 1.003432,-0.548018 c 0.06912,-0.0387 0.156105,-0.01289 0.193808,0.05689 0.0377,0.06912 0.01288,0.155774 -0.05689,0.193477"
       inkscape:connector-curvature="0" />
    <path
       id="path206"
       style="fill:#ffffff;fill-opacity:1;fill-rule:nonzero;stroke:none;stroke-width:0.26458332"
       d="m 51.815262,103.1378 c 0.04167,-0.0671 0.129977,-0.0876 0.197115,-0.0456 0.06648,0.042 0.08665,0.12998 0.04432,0.19712 l -0.605896,0.9697 c -0.02646,0.0433 -0.07375,0.0671 -0.121046,0.0671 -0.0258,0 -0.05193,-0.007 -0.07508,-0.0218 -0.06714,-0.042 -0.08764,-0.13031 -0.04597,-0.19712 z"
       inkscape:connector-curvature="0" />
    <path
       id="path210"
       style="fill:#ffffff;fill-opacity:1;fill-rule:nonzero;stroke:none;stroke-width:0.26458332"
       d="m 55.36283,98.002296 c -0.02712,0.043 -0.07375,0.06714 -0.121047,0.06714 -0.0258,0 -0.05192,-0.0069 -0.07607,-0.02183 -0.06714,-0.042 -0.08665,-0.130308 -0.04498,-0.197115 l 0.606557,-0.969698 c 0.04167,-0.06681 0.129977,-0.08731 0.196784,-0.04531 0.06648,0.04167 0.08698,0.129976 0.04531,0.196783 z"
       inkscape:connector-curvature="0" />
    <path
       inkscape:connector-curvature="0"
       d="m 57.852078,106.26616 c -0.07243,-0.0367 -0.160735,-0.007 -0.197776,0.0655 l -0.524868,1.04445 c -0.03605,0.0728 -0.0066,0.16106 0.06515,0.19711 0.02117,0.0106 0.04399,0.0159 0.06648,0.0159 0.05391,0 0.105171,-0.0294 0.131299,-0.081 l 0.524536,-1.04478 c 0.03737,-0.0721 0.0079,-0.16073 -0.06482,-0.19711"
       style="fill:#ffffff;fill-opacity:1;fill-rule:nonzero;stroke:none;stroke-width:0.26458332"
       id="path6203" />
    <path
       id="path3184"
       style="fill:#ffffff;fill-opacity:1;fill-rule:nonzero;stroke:none;stroke-width:0.26458332"
       d="m 55.206244,106.26616 c -0.07243,-0.0367 -0.160734,-0.007 -0.197776,0.0655 l -0.524867,1.04445 c -0.03605,0.0728 -0.0066,0.16106 0.06515,0.19711 0.02117,0.0106 0.04399,0.0159 0.06648,0.0159 0.05391,0 0.105172,-0.0294 0.1313,-0.081 l 0.524536,-1.04478 c 0.03737,-0.0721 0.0079,-0.16073 -0.06482,-0.19711"
       inkscape:connector-curvature="0" />
  </g>
</svg>
