<?xml version="1.0" encoding="UTF-8" standalone="no"?>
<!-- Created with Inkscape (http://www.inkscape.org/) -->

<svg
   xmlns:dc="http://purl.org/dc/elements/1.1/"
   xmlns:cc="http://creativecommons.org/ns#"
   xmlns:rdf="http://www.w3.org/1999/02/22-rdf-syntax-ns#"
   xmlns:svg="http://www.w3.org/2000/svg"
   xmlns="http://www.w3.org/2000/svg"
   xmlns:sodipodi="http://sodipodi.sourceforge.net/DTD/sodipodi-0.dtd"
   xmlns:inkscape="http://www.inkscape.org/namespaces/inkscape"
   width="15mm"
   height="15mm"
   viewBox="0 0 15 15"
   version="1.1"
   id="svg4552"
   inkscape:version="0.92.3 (2405546, 2018-03-11)"
   sodipodi:docname="rainHeavy.svg">
  <defs
     id="defs4546" />
  <sodipodi:namedview
     id="base"
     pagecolor="#ffffff"
     bordercolor="#666666"
     borderopacity="1.0"
     inkscape:pageopacity="0.0"
     inkscape:pageshadow="2"
     inkscape:zoom="3.959798"
     inkscape:cx="25.868434"
     inkscape:cy="9.7605536"
     inkscape:document-units="mm"
     inkscape:current-layer="layer1"
     showgrid="false"
     fit-margin-top="0"
     fit-margin-left="0.2"
     fit-margin-right="0.2"
     fit-margin-bottom="0"
     inkscape:window-width="927"
     inkscape:window-height="1016"
     inkscape:window-x="993"
     inkscape:window-y="27"
     inkscape:window-maximized="0" />
  <metadata
     id="metadata4549">
    <rdf:RDF>
      <cc:Work
         rdf:about="">
        <dc:format>image/svg+xml</dc:format>
        <dc:type
           rdf:resource="http://purl.org/dc/dcmitype/StillImage" />
        <dc:title></dc:title>
      </cc:Work>
    </rdf:RDF>
  </metadata>
  <g
     inkscape:label="Layer 1"
     inkscape:groupmode="layer"
     id="layer1"
     transform="translate(-47.550876,-94.37987)">
    <path
       id="path346"
       style="fill:#ffffff;fill-opacity:1;fill-rule:nonzero;stroke:none;stroke-width:0.26458332"
       d="m 51.582113,104.81132 c -0.08434,-0.0417 -0.186531,-0.008 -0.228864,0.0761 l -1.149946,2.29989 c -0.042,0.084 -0.0079,0.18653 0.0764,0.22886 0.02447,0.0122 0.0506,0.0182 0.07607,0.0182 0.06284,0 0.123031,-0.0347 0.152796,-0.0943 l 1.149946,-2.30022 c 0.042,-0.084 0.0079,-0.18653 -0.0764,-0.22854"
       inkscape:connector-curvature="0" />
    <path
       id="path350"
       style="fill:#ffffff;fill-opacity:1;fill-rule:nonzero;stroke:none;stroke-width:0.26458332"
       d="m 53.50011,104.81132 c -0.08434,-0.0417 -0.186532,-0.008 -0.228865,0.0761 l -1.149945,2.29989 c -0.042,0.084 -0.0079,0.18653 0.0764,0.22886 0.02447,0.0122 0.05027,0.0182 0.07607,0.0182 0.06251,0 0.1227,-0.0347 0.152797,-0.0943 l 1.149614,-2.30022 c 0.04233,-0.084 0.0083,-0.18653 -0.07607,-0.22854"
       inkscape:connector-curvature="0" />
    <path
       id="path354"
       style="fill:#ffffff;fill-opacity:1;fill-rule:nonzero;stroke:none;stroke-width:0.26458332"
       d="m 55.417974,104.81132 c -0.08401,-0.0417 -0.186532,-0.008 -0.228865,0.0761 l -1.149945,2.29989 c -0.042,0.084 -0.0079,0.18653 0.0764,0.22886 0.02447,0.0122 0.05027,0.0182 0.07607,0.0182 0.06251,0 0.123031,-0.0347 0.152797,-0.0943 l 1.149945,-2.30022 c 0.042,-0.084 0.0079,-0.18653 -0.0764,-0.22854"
       inkscape:connector-curvature="0" />
    <path
       id="path358"
       style="fill:#ffffff;fill-opacity:1;fill-rule:nonzero;stroke:none;stroke-width:0.26458332"
       d="m 57.335806,104.81132 c -0.08434,-0.0417 -0.186531,-0.008 -0.228865,0.0761 l -1.149945,2.29989 c -0.04233,0.084 -0.0079,0.18653 0.0764,0.22886 0.02447,0.0122 0.05027,0.0182 0.07607,0.0182 0.06251,0 0.122701,-0.0347 0.152797,-0.0943 l 1.149615,-2.30022 c 0.04233,-0.084 0.0083,-0.18653 -0.07607,-0.22854"
       inkscape:connector-curvature="0" />
    <path
       id="path362"
       style="fill:#ffffff;fill-opacity:1;fill-rule:nonzero;stroke:none;stroke-width:0.26458332"
       d="m 59.253474,104.81132 c -0.08434,-0.0417 -0.186531,-0.008 -0.228864,0.0761 l -1.149946,2.29989 c -0.042,0.084 -0.0079,0.18653 0.0764,0.22886 0.02447,0.0122 0.05027,0.0182 0.07607,0.0182 0.06251,0 0.123032,-0.0347 0.152797,-0.0943 l 1.149946,-2.30022 c 0.042,-0.084 0.0079,-0.18653 -0.0764,-0.22854"
       inkscape:connector-curvature="0" />
    <path
       id="path366"
       style="fill:#ffffff;fill-opacity:1;fill-rule:nonzero;stroke:none;stroke-width:0.26458332"
       d="m 61.095273,104.81132 c -0.08434,-0.0417 -0.186531,-0.008 -0.228864,0.0761 l -1.149946,2.29989 c -0.042,0.084 -0.0079,0.18653 0.0764,0.22886 0.02447,0.0122 0.05027,0.0182 0.07607,0.0182 0.06251,0 0.123032,-0.0347 0.152797,-0.0943 l 1.149946,-2.30022 c 0.042,-0.084 0.0079,-0.18653 -0.0764,-0.22854"
       inkscape:connector-curvature="0" />
    <path
       id="path370"
       style="fill:#ffffff;fill-opacity:1;fill-rule:nonzero;stroke:none;stroke-width:0.26458332"
       d="m 53.081708,103.5136 h 5.867466 c 0.03903,0 0.07971,0 0.11774,0.004 v -0.004 c 0.958453,0 1.737982,-0.77953 1.737982,-1.73831 0,-0.95812 -0.779529,-1.73798 -1.737982,-1.73798 -0.135599,0 -0.27649,0.0179 -0.419365,0.0529 -0.0463,0.0119 -0.09525,0.003 -0.135599,-0.0232 -0.03969,-0.0265 -0.06648,-0.06846 -0.07408,-0.115759 -0.194138,-1.236927 -1.243542,-2.134857 -2.495352,-2.134857 -1.394354,0 -2.529086,1.134732 -2.529086,2.529416 0,0.0688 0.0046,0.13626 0.01024,0.2034 0.0043,0.0506 -0.01423,0.10087 -0.05093,0.13626 -0.03638,0.0357 -0.08698,0.0526 -0.137584,0.0476 -0.05027,-0.006 -0.101534,-0.009 -0.153458,-0.009 -0.768945,0 -1.394354,0.62574 -1.394354,1.39469 0,0.76895 0.625409,1.39468 1.394354,1.39468 m -0.0093,-3.13068 c -2.64e-4,-0.0122 -2.64e-4,-0.0245 -2.64e-4,-0.037 0,-1.582541 1.287859,-2.870731 2.870398,-2.870731 1.361282,0 2.511558,0.934971 2.799623,2.247966 0.109802,-0.0182 0.218281,-0.02712 0.324776,-0.02712 1.146307,0 2.079294,0.932655 2.079294,2.079295 0,1.14664 -0.932987,2.0793 -2.080286,2.0793 h -1.550789 -4.433425 c -0.95713,0 -1.735997,-0.77854 -1.735997,-1.73567 0,-0.95416 0.773906,-1.73104 1.726737,-1.736"
       inkscape:connector-curvature="0" />
    <path
       id="path374"
       style="fill:#ffffff;fill-opacity:1;fill-rule:nonzero;stroke:none;stroke-width:0.26458332"
       d="m 50.99173,98.546215 c 0.106495,0 0.214974,0.0089 0.324445,0.02679 0.288396,-1.312994 1.438672,-2.247635 2.799623,-2.247635 0.592997,0 1.161521,0.178924 1.645047,0.518253 0.07739,0.05391 0.09591,0.160073 0.042,0.237132 -0.05424,0.07739 -0.160403,0.09591 -0.237794,0.042 -0.425649,-0.298318 -0.927034,-0.456406 -1.449255,-0.456406 -1.251479,0 -2.301214,0.897929 -2.495352,2.134857 -0.0073,0.04729 -0.03406,0.0893 -0.07408,0.115755 -0.03969,0.02646 -0.08864,0.03473 -0.135268,0.02349 -0.142545,-0.03506 -0.283435,-0.05292 -0.419365,-0.05292 -0.958453,0 -1.737982,0.779859 -1.737982,1.73798 0,0.89396 0.669396,1.63711 1.557073,1.72873 0.09393,0.01 0.162057,0.0936 0.152466,0.18719 -0.0093,0.088 -0.08334,0.15313 -0.169664,0.15313 -0.006,0 -0.01191,-2.7e-4 -0.01786,-5.3e-4 -1.062302,-0.10981 -1.863659,-0.99881 -1.863659,-2.06839 0,-1.146633 0.932987,-2.079289 2.079625,-2.079289"
       inkscape:connector-curvature="0" />
  </g>
</svg>
