<?xml version="1.0" encoding="UTF-8" standalone="no"?>
<!-- Created with Inkscape (http://www.inkscape.org/) -->

<svg
   xmlns:dc="http://purl.org/dc/elements/1.1/"
   xmlns:cc="http://creativecommons.org/ns#"
   xmlns:rdf="http://www.w3.org/1999/02/22-rdf-syntax-ns#"
   xmlns:svg="http://www.w3.org/2000/svg"
   xmlns="http://www.w3.org/2000/svg"
   xmlns:sodipodi="http://sodipodi.sourceforge.net/DTD/sodipodi-0.dtd"
   xmlns:inkscape="http://www.inkscape.org/namespaces/inkscape"
   width="15mm"
   height="15mm"
   viewBox="0 0 15 15"
   version="1.1"
   id="svg4552"
   inkscape:version="0.92.3 (2405546, 2018-03-11)"
   sodipodi:docname="snowHeavy.svg">
  <defs
     id="defs4546" />
  <sodipodi:namedview
     id="base"
     pagecolor="#ffffff"
     bordercolor="#666666"
     borderopacity="1.0"
     inkscape:pageopacity="0.0"
     inkscape:pageshadow="2"
     inkscape:zoom="3.959798"
     inkscape:cx="25.868434"
     inkscape:cy="23.433508"
     inkscape:document-units="mm"
     inkscape:current-layer="layer1"
     showgrid="false"
     fit-margin-top="0"
     fit-margin-left="0.2"
     fit-margin-right="0.2"
     fit-margin-bottom="0"
     inkscape:window-width="927"
     inkscape:window-height="1016"
     inkscape:window-x="993"
     inkscape:window-y="27"
     inkscape:window-maximized="0" />
  <metadata
     id="metadata4549">
    <rdf:RDF>
      <cc:Work
         rdf:about="">
        <dc:format>image/svg+xml</dc:format>
        <dc:type
           rdf:resource="http://purl.org/dc/dcmitype/StillImage" />
        <dc:title></dc:title>
      </cc:Work>
    </rdf:RDF>
  </metadata>
  <g
     inkscape:label="Layer 1"
     inkscape:groupmode="layer"
     id="layer1"
     transform="translate(-47.550876,-94.37987)">
    <path
       id="path506"
       style="fill:#ffffff;fill-opacity:1;fill-rule:nonzero;stroke:none;stroke-width:0.26458332"
       d="m 53.104226,102.93885 h 5.864489 c 0.03903,0 0.07971,0 0.11774,0.004 v -0.004 c 0.957791,0 1.73732,-0.77919 1.73732,-1.73698 0,-0.95812 -0.779529,-1.737321 -1.73732,-1.737321 -0.13593,0 -0.277151,0.01786 -0.419034,0.05292 -0.0463,0.01156 -0.09558,0.003 -0.135599,-0.0235 -0.03969,-0.02646 -0.06681,-0.06846 -0.07408,-0.115424 -0.193808,-1.236598 -1.243211,-2.133865 -2.494029,-2.133865 -1.394023,0 -2.528425,1.134071 -2.528425,2.528425 0,0.06846 0.0053,0.136259 0.01093,0.203067 0.0036,0.05093 -0.0149,0.100868 -0.05126,0.136258 -0.03605,0.0354 -0.08698,0.0526 -0.136922,0.0473 -0.0506,-0.005 -0.101865,-0.009 -0.153789,-0.009 -0.768615,0 -1.394024,0.62541 -1.394024,1.3937 0,0.76861 0.625409,1.39401 1.394024,1.39401 m -0.0096,-3.128689 c 0,-0.01257 -2.65e-4,-0.02479 -2.65e-4,-0.03704 0,-1.582209 1.287529,-2.869407 2.869407,-2.869407 1.360289,0 2.510234,0.93431 2.798299,2.246644 0.109141,-0.01786 0.217951,-0.02712 0.324445,-0.02712 1.145977,0 2.078302,0.932652 2.078302,2.078632 0,1.14599 -0.932325,2.0783 -2.079294,2.0783 h -1.550127 -4.43111 c -0.956799,0 -1.735005,-0.77852 -1.735005,-1.73532 0,-0.95351 0.772914,-1.729727 1.725414,-1.734688"
       inkscape:connector-curvature="0" />
    <path
       id="path510"
       style="fill:#ffffff;fill-opacity:1;fill-rule:nonzero;stroke:none;stroke-width:0.26458332"
       d="m 51.015208,97.97405 c 0.106825,0 0.215305,0.0089 0.324445,0.02679 0.288396,-1.312002 1.438011,-2.246643 2.7983,-2.246643 0.592336,0 1.160859,0.179255 1.644385,0.517922 0.07673,0.05424 0.09558,0.160404 0.04167,0.237463 -0.05424,0.07739 -0.160404,0.09591 -0.237794,0.042 -0.425649,-0.298648 -0.926373,-0.456406 -1.448263,-0.456406 -1.250818,0 -2.300221,0.897599 -2.494028,2.133864 -0.0076,0.04763 -0.03473,0.0893 -0.07441,0.115756 -0.03936,0.02646 -0.0883,0.03506 -0.135269,0.02349 -0.142214,-0.03539 -0.282774,-0.05325 -0.419034,-0.05325 -0.957792,0 -1.73732,0.779529 -1.73732,1.737324 0,0.8933 0.669395,1.63612 1.556742,1.72773 0.0936,0.01 0.161726,0.0939 0.152135,0.18752 -0.0093,0.0877 -0.08334,0.15313 -0.169663,0.15313 -0.0056,0 -0.01191,-2.6e-4 -0.01752,-0.001 -1.061972,-0.1098 -1.862667,-0.99847 -1.862667,-2.06739 0,-1.145977 0.932326,-2.078302 2.078302,-2.078302"
       inkscape:connector-curvature="0" />
    <path
       id="path3162"
       style="fill:#ffffff;fill-opacity:1;fill-rule:nonzero;stroke:none;stroke-width:0.26458332"
       d="m 52.981043,104.6459 c -0.09705,2.3e-4 -0.175394,0.0786 -0.175627,0.17563 v 0.27034 h -0.270344 c -0.09682,0 -0.175396,0.0786 -0.17563,0.17563 2.34e-4,0.0971 0.07881,0.17563 0.17563,0.17563 h 0.270344 l -2.36e-4,0.27011 c 0,0.0968 0.07858,0.1754 0.175632,0.17563 0.04864,0 0.09284,-0.0199 0.124411,-0.0515 0.03181,-0.0318 0.05145,-0.0758 0.05121,-0.12418 l 2.36e-4,-0.27011 0.270108,-2.3e-4 c 0.04864,0 0.09238,-0.0194 0.124182,-0.0512 0.0318,-0.0318 0.05145,-0.0758 0.05145,-0.12441 -2.33e-4,-0.097 -0.07881,-0.17563 -0.175629,-0.17563 l -0.270108,2.3e-4 v -0.27034 c 0,-0.0968 -0.07858,-0.1754 -0.175632,-0.17563"
       inkscape:connector-curvature="0" />
    <path
       inkscape:connector-curvature="0"
       d="m 56.156044,104.6459 c -0.09705,2.3e-4 -0.175395,0.0786 -0.175628,0.17563 v 0.27034 h -0.270344 c -0.09682,0 -0.175397,0.0786 -0.17563,0.17563 2.33e-4,0.0971 0.07881,0.17563 0.17563,0.17563 h 0.270344 l -2.36e-4,0.27011 c 0,0.0968 0.07858,0.1754 0.175631,0.17563 0.04864,0 0.09284,-0.0199 0.124412,-0.0515 0.03181,-0.0318 0.05145,-0.0758 0.05121,-0.12418 l 2.36e-4,-0.27011 0.270108,-2.3e-4 c 0.04864,0 0.09238,-0.0194 0.124182,-0.0512 0.0318,-0.0318 0.05145,-0.0758 0.05145,-0.12441 -2.33e-4,-0.097 -0.07881,-0.17563 -0.17563,-0.17563 l -0.270108,2.3e-4 v -0.27034 c 0,-0.0968 -0.07858,-0.1754 -0.17563,-0.17563"
       style="fill:#ffffff;fill-opacity:1;fill-rule:nonzero;stroke:none;stroke-width:0.26458332"
       id="path3164" />
    <path
       id="path3166"
       style="fill:#ffffff;fill-opacity:1;fill-rule:nonzero;stroke:none;stroke-width:0.26458332"
       d="m 59.331043,104.6459 c -0.09705,2.3e-4 -0.175393,0.0786 -0.175627,0.17563 v 0.27034 h -0.270344 c -0.09682,0 -0.175396,0.0786 -0.175629,0.17563 2.33e-4,0.0971 0.07881,0.17563 0.175629,0.17563 h 0.270344 l -2.36e-4,0.27011 c 0,0.0968 0.07858,0.1754 0.175632,0.17563 0.04864,0 0.09284,-0.0199 0.124412,-0.0515 0.03181,-0.0318 0.05145,-0.0758 0.05121,-0.12418 l 2.36e-4,-0.27011 0.270109,-2.3e-4 c 0.04864,0 0.09238,-0.0194 0.124181,-0.0512 0.0318,-0.0318 0.05145,-0.0758 0.05145,-0.12441 -2.34e-4,-0.097 -0.07881,-0.17563 -0.17563,-0.17563 l -0.270108,2.3e-4 v -0.27034 c 0,-0.0968 -0.07858,-0.1754 -0.17563,-0.17563"
       inkscape:connector-curvature="0" />
    <path
       inkscape:connector-curvature="0"
       d="m 51.393543,106.76257 c -0.09705,2.3e-4 -0.175393,0.0786 -0.175627,0.17563 v 0.27034 h -0.270344 c -0.09682,0 -0.175396,0.0786 -0.175629,0.17563 2.33e-4,0.097 0.07881,0.17563 0.175629,0.17563 h 0.270344 l -2.36e-4,0.27011 c 0,0.0968 0.07858,0.17539 0.175632,0.17563 0.04864,0 0.09284,-0.0199 0.124412,-0.0515 0.03181,-0.0318 0.05145,-0.0758 0.05121,-0.12418 l 2.36e-4,-0.27011 0.270109,-2.4e-4 c 0.04864,0 0.09238,-0.0194 0.124181,-0.0512 0.0318,-0.0318 0.05145,-0.0758 0.05145,-0.12442 -2.34e-4,-0.097 -0.07881,-0.17562 -0.17563,-0.17562 l -0.270108,2.3e-4 v -0.27034 c 0,-0.0968 -0.07858,-0.1754 -0.175632,-0.17563"
       style="fill:#ffffff;fill-opacity:1;fill-rule:nonzero;stroke:none;stroke-width:0.26458332"
       id="path3168" />
    <path
       id="path3170"
       style="fill:#ffffff;fill-opacity:1;fill-rule:nonzero;stroke:none;stroke-width:0.26458332"
       d="m 54.568544,106.76257 c -0.09705,2.3e-4 -0.175395,0.0786 -0.175628,0.17563 v 0.27034 h -0.270344 c -0.09682,0 -0.175397,0.0786 -0.17563,0.17563 2.33e-4,0.097 0.07881,0.17563 0.17563,0.17563 h 0.270344 l -2.36e-4,0.27011 c 0,0.0968 0.07858,0.17539 0.175631,0.17563 0.04864,0 0.09284,-0.0199 0.124412,-0.0515 0.03181,-0.0318 0.05145,-0.0758 0.05121,-0.12418 l 2.36e-4,-0.27011 0.270108,-2.4e-4 c 0.04864,0 0.09238,-0.0194 0.124182,-0.0512 0.0318,-0.0318 0.05145,-0.0758 0.05145,-0.12442 -2.33e-4,-0.097 -0.07881,-0.17562 -0.17563,-0.17562 l -0.270108,2.3e-4 v -0.27034 c 0,-0.0968 -0.07858,-0.1754 -0.17563,-0.17563"
       inkscape:connector-curvature="0" />
    <path
       inkscape:connector-curvature="0"
       d="m 57.743543,106.76257 c -0.09705,2.3e-4 -0.175394,0.0786 -0.175627,0.17563 v 0.27034 h -0.270344 c -0.09682,0 -0.175397,0.0786 -0.17563,0.17563 2.33e-4,0.097 0.07881,0.17563 0.17563,0.17563 h 0.270344 l -2.36e-4,0.27011 c 0,0.0968 0.07858,0.17539 0.175631,0.17563 0.04864,0 0.09284,-0.0199 0.124412,-0.0515 0.03181,-0.0318 0.05145,-0.0758 0.05122,-0.12418 l 2.36e-4,-0.27011 0.270108,-2.4e-4 c 0.04864,0 0.09238,-0.0194 0.124182,-0.0512 0.0318,-0.0318 0.05145,-0.0758 0.05145,-0.12442 -2.33e-4,-0.097 -0.07881,-0.17562 -0.17563,-0.17562 l -0.270108,2.3e-4 v -0.27034 c 0,-0.0968 -0.07858,-0.1754 -0.175631,-0.17563"
       style="fill:#ffffff;fill-opacity:1;fill-rule:nonzero;stroke:none;stroke-width:0.26458332"
       id="path3172" />
  </g>
</svg>
