<?xml version="1.0" encoding="UTF-8" standalone="no"?>
<!-- Created with Inkscape (http://www.inkscape.org/) -->

<svg
   xmlns:dc="http://purl.org/dc/elements/1.1/"
   xmlns:cc="http://creativecommons.org/ns#"
   xmlns:rdf="http://www.w3.org/1999/02/22-rdf-syntax-ns#"
   xmlns:svg="http://www.w3.org/2000/svg"
   xmlns="http://www.w3.org/2000/svg"
   xmlns:sodipodi="http://sodipodi.sourceforge.net/DTD/sodipodi-0.dtd"
   xmlns:inkscape="http://www.inkscape.org/namespaces/inkscape"
   width="15mm"
   height="15mm"
   viewBox="0 0 15 15"
   version="1.1"
   id="svg4552"
   inkscape:version="0.92.3 (2405546, 2018-03-11)"
   sodipodi:docname="snowLight.svg">
  <defs
     id="defs4546" />
  <sodipodi:namedview
     id="base"
     pagecolor="#ffffff"
     bordercolor="#666666"
     borderopacity="1.0"
     inkscape:pageopacity="0.0"
     inkscape:pageshadow="2"
     inkscape:zoom="3.959798"
     inkscape:cx="25.868434"
     inkscape:cy="23.433508"
     inkscape:document-units="mm"
     inkscape:current-layer="layer1"
     showgrid="false"
     fit-margin-top="0"
     fit-margin-left="0.2"
     fit-margin-right="0.2"
     fit-margin-bottom="0"
     inkscape:window-width="927"
     inkscape:window-height="1016"
     inkscape:window-x="993"
     inkscape:window-y="27"
     inkscape:window-maximized="0" />
  <metadata
     id="metadata4549">
    <rdf:RDF>
      <cc:Work
         rdf:about="">
        <dc:format>image/svg+xml</dc:format>
        <dc:type
           rdf:resource="http://purl.org/dc/dcmitype/StillImage" />
        <dc:title></dc:title>
      </cc:Work>
    </rdf:RDF>
  </metadata>
  <g
     inkscape:label="Layer 1"
     inkscape:groupmode="layer"
     id="layer1"
     transform="translate(-47.550876,-94.37987)">
    <path
       id="path542"
       style="fill:#ffffff;fill-opacity:1;fill-rule:nonzero;stroke:none;stroke-width:0.26458332"
       d="m 53.72695,105.67806 c -0.09705,2.3e-4 -0.175395,0.0786 -0.175628,0.17563 v 0.27034 h -0.270343 c -0.09682,0 -0.175398,0.0786 -0.175631,0.17563 2.33e-4,0.097 0.07881,0.17563 0.175631,0.17563 h 0.270343 l -2.36e-4,0.27011 c 0,0.0968 0.07858,0.1754 0.175631,0.17563 0.04864,0 0.09284,-0.0199 0.124412,-0.0515 0.03181,-0.0318 0.05145,-0.0758 0.05122,-0.12418 l 2.35e-4,-0.27011 0.270108,-2.3e-4 c 0.04864,0 0.09238,-0.0194 0.124182,-0.0512 0.0318,-0.0318 0.05145,-0.0758 0.05145,-0.12441 -2.32e-4,-0.0971 -0.07881,-0.17563 -0.17563,-0.17563 l -0.270108,2.3e-4 v -0.27034 c 0,-0.0968 -0.07858,-0.1754 -0.17563,-0.17563"
       inkscape:connector-curvature="0" />
    <path
       id="path562"
       style="fill:#ffffff;fill-opacity:1;fill-rule:nonzero;stroke:none;stroke-width:0.26458332"
       d="m 53.046293,104.23771 h 6.039446 c 0.04035,0 0.08202,0 0.121377,0.004 v -0.004 c 0.986235,0 1.788914,-0.80235 1.788914,-1.78891 0,-0.98657 -0.802679,-1.78892 -1.788914,-1.78892 -0.140229,0 -0.285088,0.0182 -0.431601,0.0542 -0.04762,0.0119 -0.09856,0.003 -0.139568,-0.0241 -0.04101,-0.0275 -0.06879,-0.0701 -0.0764,-0.11873 -0.19976,-1.273644 -1.279921,-2.197369 -2.568442,-2.197369 -1.435696,0 -2.6035,1.167805 -2.6035,2.603509 0,0.0708 0.005,0.14022 0.01058,0.20935 0.0043,0.0523 -0.01487,0.10352 -0.05226,0.1399 -0.0377,0.037 -0.08963,0.0546 -0.141222,0.0489 -0.05225,-0.005 -0.104841,-0.009 -0.158419,-0.009 -0.791435,0 -1.435364,0.64392 -1.435364,1.43536 0,0.79177 0.643929,1.4357 1.435364,1.4357 m -0.0096,-3.2223 c -2.64e-4,-0.0126 -2.64e-4,-0.0254 -2.64e-4,-0.038 0,-1.629504 1.325562,-2.954738 2.954734,-2.954738 1.400969,0 2.584979,0.962094 2.881643,2.313458 0.112779,-0.0185 0.224565,-0.0274 0.334368,-0.0274 1.180041,0 2.140148,0.9601 2.140148,2.14015 0,1.18004 -0.960107,2.14014 -2.141141,2.14014 h -1.596429 -4.563401 c -0.985243,0 -1.786599,-0.80135 -1.786599,-1.78693 0,-0.9816 0.796065,-1.7813 1.777007,-1.78659"
       inkscape:connector-curvature="0" />
    <path
       id="path566"
       style="fill:#ffffff;fill-opacity:1;fill-rule:nonzero;stroke:none;stroke-width:0.26458332"
       d="m 50.894934,99.124666 c 0.109802,0 0.221589,0.009 0.334368,0.0275 0.296664,-1.350699 1.481005,-2.313452 2.881643,-2.313452 0.609864,0 1.195255,0.184547 1.693333,0.533466 0.07937,0.05589 0.09856,0.165365 0.04299,0.24474 -0.05589,0.07937 -0.165034,0.09856 -0.24507,0.043 -0.438217,-0.307248 -0.953823,-0.469967 -1.491258,-0.469967 -1.288521,0 -2.368682,0.924388 -2.568443,2.197693 -0.0076,0.0486 -0.03539,0.0916 -0.07673,0.11907 -0.04035,0.0271 -0.09095,0.0357 -0.139237,0.0242 -0.146182,-0.0364 -0.291372,-0.0549 -0.431602,-0.0549 -0.986234,0 -1.788914,0.802674 -1.788914,1.789244 0,0.92009 0.68924,1.68507 1.603045,1.77933 0.09624,0.0102 0.166687,0.0966 0.156765,0.19281 -0.0096,0.0903 -0.08599,0.15776 -0.174625,0.15776 -0.0063,0 -0.01222,-2.7e-4 -0.0182,-0.001 -1.093721,-0.11311 -1.91856,-1.02824 -1.91856,-2.12891 0,-1.18037 0.960437,-2.140484 2.140479,-2.140484"
       inkscape:connector-curvature="0" />
    <path
       id="path3150"
       style="fill:#ffffff;fill-opacity:1;fill-rule:nonzero;stroke:none;stroke-width:0.26458332"
       d="m 57.960283,105.67806 c -0.09705,2.3e-4 -0.175395,0.0786 -0.175628,0.17563 v 0.27034 h -0.270343 c -0.09682,0 -0.175398,0.0786 -0.17563,0.17563 2.32e-4,0.097 0.07881,0.17563 0.17563,0.17563 h 0.270343 l -2.35e-4,0.27011 c 0,0.0968 0.07858,0.1754 0.17563,0.17563 0.04864,0 0.09284,-0.0199 0.124413,-0.0515 0.03181,-0.0318 0.05145,-0.0758 0.05121,-0.12418 l 2.35e-4,-0.27011 0.270108,-2.3e-4 c 0.04864,0 0.09238,-0.0194 0.124183,-0.0512 0.0318,-0.0318 0.05145,-0.0758 0.05145,-0.12441 -2.33e-4,-0.0971 -0.07881,-0.17563 -0.175631,-0.17563 l -0.270108,2.3e-4 v -0.27034 c 0,-0.0968 -0.07858,-0.1754 -0.17563,-0.17563"
       inkscape:connector-curvature="0" />
  </g>
</svg>
