<?xml version="1.0" encoding="UTF-8" standalone="no"?>
<!-- Created with Inkscape (http://www.inkscape.org/) -->

<svg
   xmlns:dc="http://purl.org/dc/elements/1.1/"
   xmlns:cc="http://creativecommons.org/ns#"
   xmlns:rdf="http://www.w3.org/1999/02/22-rdf-syntax-ns#"
   xmlns:svg="http://www.w3.org/2000/svg"
   xmlns="http://www.w3.org/2000/svg"
   xmlns:sodipodi="http://sodipodi.sourceforge.net/DTD/sodipodi-0.dtd"
   xmlns:inkscape="http://www.inkscape.org/namespaces/inkscape"
   width="15mm"
   height="15mm"
   viewBox="0 0 15 15"
   version="1.1"
   id="svg4552"
   inkscape:version="0.92.3 (2405546, 2018-03-11)"
   sodipodi:docname="storm.svg">
  <defs
     id="defs4546" />
  <sodipodi:namedview
     id="base"
     pagecolor="#ffffff"
     bordercolor="#666666"
     borderopacity="1.0"
     inkscape:pageopacity="0.0"
     inkscape:pageshadow="2"
     inkscape:zoom="3.959798"
     inkscape:cx="25.868434"
     inkscape:cy="23.433508"
     inkscape:document-units="mm"
     inkscape:current-layer="layer1"
     showgrid="false"
     fit-margin-top="0"
     fit-margin-left="0.2"
     fit-margin-right="0.2"
     fit-margin-bottom="0"
     inkscape:window-width="1853"
     inkscape:window-height="1016"
     inkscape:window-x="67"
     inkscape:window-y="27"
     inkscape:window-maximized="1" />
  <metadata
     id="metadata4549">
    <rdf:RDF>
      <cc:Work
         rdf:about="">
        <dc:format>image/svg+xml</dc:format>
        <dc:type
           rdf:resource="http://purl.org/dc/dcmitype/StillImage" />
        <dc:title></dc:title>
      </cc:Work>
    </rdf:RDF>
  </metadata>
  <g
     inkscape:label="Layer 1"
     inkscape:groupmode="layer"
     id="layer1"
     transform="translate(-47.550876,-94.37987)">
    <path
       id="path346"
       style="fill:#ffffff;fill-opacity:1;fill-rule:nonzero;stroke:none;stroke-width:0.26458332"
       d="m 51.582113,104.42262 c -0.08434,-0.0417 -0.186531,-0.008 -0.228864,0.0761 l -1.149946,2.29989 c -0.042,0.084 -0.0079,0.18653 0.0764,0.22886 0.02447,0.0122 0.0506,0.0182 0.07607,0.0182 0.06284,0 0.123031,-0.0347 0.152796,-0.0943 l 1.149946,-2.30022 c 0.042,-0.084 0.0079,-0.18653 -0.0764,-0.22854"
       inkscape:connector-curvature="0" />
    <path
       id="path354"
       style="fill:#ffffff;fill-opacity:1;fill-rule:nonzero;stroke:none;stroke-width:0.26458332"
       d="m 55.417974,104.42262 c -0.08401,-0.0417 -0.186532,-0.008 -0.228865,0.0761 l -1.149945,2.29989 c -0.042,0.084 -0.0079,0.18653 0.0764,0.22886 0.02447,0.0122 0.05027,0.0182 0.07607,0.0182 0.06251,0 0.123031,-0.0347 0.152797,-0.0943 l 1.149945,-2.30022 c 0.042,-0.084 0.0079,-0.18653 -0.0764,-0.22854"
       inkscape:connector-curvature="0" />
    <path
       id="path358"
       style="fill:#ffffff;fill-opacity:1;fill-rule:nonzero;stroke:none;stroke-width:0.26458332"
       d="m 57.335806,104.42262 c -0.08434,-0.0417 -0.186531,-0.008 -0.228865,0.0761 l -1.149945,2.29989 c -0.04233,0.084 -0.0079,0.18653 0.0764,0.22886 0.02447,0.0122 0.05027,0.0182 0.07607,0.0182 0.06251,0 0.122701,-0.0347 0.152797,-0.0943 l 1.149615,-2.30022 c 0.04233,-0.084 0.0083,-0.18653 -0.07607,-0.22854"
       inkscape:connector-curvature="0" />
    <path
       id="path366"
       style="fill:#ffffff;fill-opacity:1;fill-rule:nonzero;stroke:none;stroke-width:0.26458332"
       d="m 61.095273,104.42262 c -0.08434,-0.0417 -0.186531,-0.008 -0.228864,0.0761 l -1.149946,2.29989 c -0.042,0.084 -0.0079,0.18653 0.0764,0.22886 0.02447,0.0122 0.05027,0.0182 0.07607,0.0182 0.06251,0 0.123032,-0.0347 0.152797,-0.0943 l 1.149946,-2.30022 c 0.042,-0.084 0.0079,-0.18653 -0.0764,-0.22854"
       inkscape:connector-curvature="0" />
    <path
       id="path370"
       style="fill:#ffffff;fill-opacity:1;fill-rule:nonzero;stroke:none;stroke-width:0.26458332"
       d="m 53.081708,103.1249 h 5.867466 c 0.03903,0 0.07971,0 0.11774,0.004 v -0.004 c 0.958453,0 1.737982,-0.77953 1.737982,-1.7383 0,-0.95813 -0.779529,-1.737987 -1.737982,-1.737987 -0.135599,0 -0.27649,0.01786 -0.419365,0.05292 -0.0463,0.01191 -0.09525,0.0033 -0.135599,-0.02315 -0.03969,-0.02646 -0.06648,-0.06846 -0.07408,-0.115755 -0.194138,-1.236927 -1.243542,-2.134857 -2.495352,-2.134857 -1.394354,0 -2.529086,1.134732 -2.529086,2.529417 0,0.06879 0.0046,0.136262 0.01024,0.203402 0.0043,0.0506 -0.01423,0.10087 -0.05093,0.13626 -0.03638,0.0357 -0.08698,0.0526 -0.137584,0.0476 -0.05027,-0.006 -0.101534,-0.009 -0.153458,-0.009 -0.768945,0 -1.394354,0.62574 -1.394354,1.39468 0,0.76895 0.625409,1.39468 1.394354,1.39468 m -0.0093,-3.130675 c -2.64e-4,-0.01222 -2.64e-4,-0.02447 -2.64e-4,-0.03704 0,-1.582539 1.287859,-2.870729 2.870398,-2.870729 1.361282,0 2.511558,0.934971 2.799623,2.247966 0.109802,-0.0182 0.218281,-0.02712 0.324776,-0.02712 1.146307,0 2.079294,0.932658 2.079294,2.079298 0,1.14663 -0.932987,2.07929 -2.080286,2.07929 h -1.550789 -4.433425 c -0.95713,0 -1.735997,-0.77854 -1.735997,-1.73567 0,-0.95415 0.773906,-1.731032 1.726737,-1.735993"
       inkscape:connector-curvature="0" />
    <path
       id="path374"
       style="fill:#ffffff;fill-opacity:1;fill-rule:nonzero;stroke:none;stroke-width:0.26458332"
       d="m 50.99173,98.157522 c 0.106495,0 0.214974,0.0089 0.324445,0.02679 0.288396,-1.312994 1.438672,-2.247635 2.799623,-2.247635 0.592997,0 1.161521,0.178924 1.645047,0.518253 0.07739,0.05391 0.09591,0.160073 0.042,0.237132 -0.05424,0.07739 -0.160403,0.09591 -0.237794,0.042 -0.425649,-0.298318 -0.927034,-0.456406 -1.449255,-0.456406 -1.251479,0 -2.301214,0.897929 -2.495352,2.134857 -0.0073,0.04729 -0.03406,0.0893 -0.07408,0.115755 -0.03969,0.02646 -0.08864,0.03473 -0.135268,0.02349 -0.142545,-0.03506 -0.283435,-0.05292 -0.419365,-0.05292 -0.958453,0 -1.737982,0.779859 -1.737982,1.737982 0,0.89396 0.669396,1.6371 1.557073,1.72872 0.09393,0.01 0.162057,0.0936 0.152466,0.18719 -0.0093,0.088 -0.08334,0.15313 -0.169664,0.15313 -0.006,0 -0.01191,-2.7e-4 -0.01786,-5.3e-4 -1.062302,-0.10981 -1.863659,-0.9988 -1.863659,-2.06838 0,-1.146636 0.932987,-2.079292 2.079625,-2.079292"
       inkscape:connector-curvature="0" />
    <path
       style="color:#000000;font-style:normal;font-variant:normal;font-weight:normal;font-stretch:normal;font-size:medium;line-height:normal;font-family:Sans;-inkscape-font-specification:Sans;text-indent:0;text-align:start;text-decoration:none;text-decoration-line:none;letter-spacing:normal;word-spacing:normal;text-transform:none;writing-mode:lr-tb;direction:ltr;baseline-shift:baseline;text-anchor:start;display:inline;overflow:visible;visibility:visible;fill:#ffffff;fill-opacity:1;stroke:none;stroke-width:0.14097881;marker:none;enable-background:accumulate"
       d="m 52.913011,104.45102 c -0.03303,-0.0105 -0.0723,-0.0121 -0.10551,-5.9e-4 -0.03206,0.0112 -0.05988,0.0322 -0.07882,0.0607 l -9.12e-4,0.003 -0.891673,1.4596 -9.12e-4,0.003 c -0.02594,0.0459 -0.0246,0.10837 0.004,0.15321 0.02067,0.0331 0.05289,0.0598 0.0895,0.0715 0.01186,0.004 0.02529,0.005 0.0408,0.007 l 0.003,9.7e-4 0.721156,0.0484 -0.809794,1.32717 c -4.96e-4,8.9e-4 -4.16e-4,0.002 -9.12e-4,0.003 -0.01909,0.0325 -0.02833,0.076 -0.01944,0.11272 0.0092,0.0381 0.03417,0.0722 0.06591,0.0937 l 0.003,9.7e-4 0.006,0.002 c 0.01342,0.007 0.02069,0.0129 0.03715,0.0182 0.05634,0.018 0.125658,0.003 0.16768,-0.039 l 9.12e-4,-0.003 1.741979,-1.88861 c 0.03569,-0.0392 0.04284,-0.10304 0.02587,-0.1536 -0.0016,-0.004 0.0025,-0.009 7.8e-4,-0.013 l -0.02973,0.0104 0.02767,-0.0143 c -0.01988,-0.0386 -0.05377,-0.07 -0.09564,-0.0833 -0.0164,-0.005 -0.02725,-0.006 -0.0408,-0.007 l -0.689263,-0.0448 0.525673,-0.6746 c 0.0016,-0.002 0.0033,-0.003 0.0049,-0.005 0.01369,-0.0149 0.02617,-0.0303 0.03316,-0.0522 0.0124,-0.0389 0.0076,-0.084 -0.0115,-0.11928 -0.0197,-0.0364 -0.05557,-0.0639 -0.09456,-0.0763 L 52.9131,104.45116 Z m -0.04208,0.13192 0.629584,0.20082 c 0.0095,0.003 0.0096,0.005 0.01316,0.0105 0.0039,0.008 0.0015,0.006 3.14e-4,0.01 0.0012,-0.004 0.0014,-0.004 -0.004,0.002 l -0.0018,0.006 -0.004,0.002 -0.609852,0.78318 -0.08226,0.10258 0.132491,0.009 0.820787,0.057 c 0.0085,6.2e-4 0.01301,0.001 0.0069,-9.5e-4 0.0053,0.002 0.009,0.005 0.01316,0.0105 3.56e-4,5.1e-4 -0.0014,0.003 -9.12e-4,0.003 0.0029,0.003 0.0071,0.002 3.14e-4,0.01 l -1.741025,1.88561 c -0.0018,0.002 -0.0029,10e-4 -0.004,0.002 -0.0061,0.006 -0.0059,0.008 -0.02072,0.003 0.0036,10e-4 -0.0051,-0.001 -0.009,-0.003 -0.0039,-0.002 -0.0042,-0.003 -0.0051,-0.005 -9.35e-4,-0.001 -5.95e-4,-0.004 -0.0012,-0.007 -0.0013,-0.005 -0.0041,-0.002 -0.0012,-0.007 l 0.872162,-1.4295 0.06141,-0.0993 -0.116528,-0.007 -0.838646,-0.0528 -0.003,-9.8e-4 c 0.0068,7e-5 0.0017,5.5e-4 -0.006,-0.002 -0.0094,-0.003 -0.0095,-0.005 -0.01316,-0.0105 -0.0037,-0.005 -0.0029,-0.005 -0.0012,-0.007 l 9.12e-4,-0.003 0.88676,-1.45456 9.12e-4,-0.003 c 0.0018,-0.003 0.0032,-0.002 0.0078,-0.004 0.0048,-0.002 0.009,-0.003 0.01681,-9.3e-4 z"
       id="path4253"
       inkscape:connector-curvature="0" />
    <path
       style="color:#000000;font-style:normal;font-variant:normal;font-weight:normal;font-stretch:normal;font-size:medium;line-height:normal;font-family:Sans;-inkscape-font-specification:Sans;text-indent:0;text-align:start;text-decoration:none;text-decoration-line:none;letter-spacing:normal;word-spacing:normal;text-transform:none;writing-mode:lr-tb;direction:ltr;baseline-shift:baseline;text-anchor:start;display:inline;overflow:visible;visibility:visible;fill:#ffffff;fill-opacity:1;stroke:none;stroke-width:0.14097881;marker:none;enable-background:accumulate"
       d="m 58.6101,104.427 c -0.03303,-0.0105 -0.0723,-0.0121 -0.10551,-5.9e-4 -0.03206,0.0112 -0.05988,0.0322 -0.07882,0.0607 l -9.13e-4,0.003 -0.891673,1.4596 -9.12e-4,0.003 c -0.02594,0.0459 -0.0246,0.10837 0.004,0.15321 0.02067,0.0331 0.05289,0.0598 0.0895,0.0715 0.01186,0.004 0.02529,0.005 0.0408,0.007 l 0.003,9.7e-4 0.721156,0.0484 -0.809794,1.32717 c -4.96e-4,9e-4 -4.16e-4,0.002 -9.12e-4,0.003 -0.01909,0.0325 -0.02833,0.076 -0.01944,0.11272 0.0092,0.0381 0.03417,0.0722 0.06591,0.0937 l 0.003,9.8e-4 0.006,0.002 c 0.01342,0.007 0.02069,0.0129 0.03715,0.0182 0.05634,0.018 0.125658,0.003 0.16768,-0.039 l 9.13e-4,-0.003 1.741979,-1.88861 c 0.03569,-0.0392 0.04284,-0.10304 0.02587,-0.1536 -0.0016,-0.004 0.0025,-0.009 7.81e-4,-0.013 l -0.02973,0.0104 0.02767,-0.0143 c -0.01988,-0.0386 -0.05377,-0.07 -0.09564,-0.0833 -0.0164,-0.005 -0.02725,-0.006 -0.0408,-0.007 l -0.689263,-0.0448 0.525673,-0.6746 c 0.0016,-0.002 0.0033,-0.003 0.0049,-0.005 0.01369,-0.0149 0.02617,-0.0303 0.03316,-0.0522 0.0124,-0.0389 0.0076,-0.084 -0.0115,-0.11928 -0.0197,-0.0364 -0.05557,-0.0639 -0.09456,-0.0763 l -0.629585,-0.20082 z m -0.04208,0.13192 0.629584,0.20082 c 0.0095,0.003 0.0096,0.005 0.01316,0.0105 0.0039,0.008 0.0015,0.006 3.15e-4,0.01 0.0012,-0.004 0.0014,-0.004 -0.004,0.002 l -0.0018,0.006 -0.004,0.002 -0.609852,0.78318 -0.08226,0.10258 0.132491,0.009 0.820787,0.057 c 0.0085,6.2e-4 0.01301,10e-4 0.0069,-9.5e-4 0.0053,0.002 0.009,0.005 0.01316,0.0105 3.57e-4,5.1e-4 -0.0014,0.003 -9.13e-4,0.003 0.0029,0.003 0.0071,0.002 3.15e-4,0.01 l -1.741027,1.88561 c -0.0018,0.002 -0.0029,0.001 -0.004,0.002 -0.0061,0.006 -0.0059,0.008 -0.02072,0.003 0.0036,0.001 -0.0051,-10e-4 -0.009,-0.003 -0.0039,-0.002 -0.0042,-0.003 -0.0051,-0.005 -9.36e-4,-0.001 -5.96e-4,-0.004 -0.0012,-0.007 -0.0013,-0.005 -0.0041,-0.002 -0.0012,-0.007 l 0.872162,-1.42951 0.06141,-0.0993 -0.116528,-0.007 -0.838646,-0.0528 -0.003,-9.8e-4 c 0.0068,7e-5 0.0017,5.5e-4 -0.006,-0.002 -0.0094,-0.003 -0.0095,-0.005 -0.01316,-0.0105 -0.0037,-0.005 -0.0029,-0.005 -0.0012,-0.007 l 9.12e-4,-0.003 0.88676,-1.45456 9.12e-4,-0.003 c 0.0018,-0.003 0.0032,-0.002 0.0078,-0.004 0.0048,-0.002 0.009,-0.003 0.01681,-9.3e-4 z"
       id="path4253-7"
       inkscape:connector-curvature="0" />
  </g>
</svg>
