<?xml version="1.0" encoding="UTF-8" standalone="no"?>
<!-- Created with Inkscape (http://www.inkscape.org/) -->

<svg
   xmlns:dc="http://purl.org/dc/elements/1.1/"
   xmlns:cc="http://creativecommons.org/ns#"
   xmlns:rdf="http://www.w3.org/1999/02/22-rdf-syntax-ns#"
   xmlns:svg="http://www.w3.org/2000/svg"
   xmlns="http://www.w3.org/2000/svg"
   xmlns:sodipodi="http://sodipodi.sourceforge.net/DTD/sodipodi-0.dtd"
   xmlns:inkscape="http://www.inkscape.org/namespaces/inkscape"
   width="15mm"
   height="15mm"
   viewBox="0 0 15 15"
   version="1.1"
   id="svg4552"
   inkscape:version="0.92.3 (2405546, 2018-03-11)"
   sodipodi:docname="sun.svg">
  <defs
     id="defs4546" />
  <sodipodi:namedview
     id="base"
     pagecolor="#ffffff"
     bordercolor="#666666"
     borderopacity="1.0"
     inkscape:pageopacity="0.0"
     inkscape:pageshadow="2"
     inkscape:zoom="3.959798"
     inkscape:cx="25.868434"
     inkscape:cy="9.7605536"
     inkscape:document-units="mm"
     inkscape:current-layer="layer1"
     showgrid="false"
     fit-margin-top="0"
     fit-margin-left="0.2"
     fit-margin-right="0.2"
     fit-margin-bottom="0"
     inkscape:window-width="927"
     inkscape:window-height="1016"
     inkscape:window-x="993"
     inkscape:window-y="27"
     inkscape:window-maximized="0" />
  <metadata
     id="metadata4549">
    <rdf:RDF>
      <cc:Work
         rdf:about="">
        <dc:format>image/svg+xml</dc:format>
        <dc:type
           rdf:resource="http://purl.org/dc/dcmitype/StillImage" />
        <dc:title></dc:title>
      </cc:Work>
    </rdf:RDF>
  </metadata>
  <g
     inkscape:label="Layer 1"
     inkscape:groupmode="layer"
     id="layer1"
     transform="translate(-47.550876,-94.37987)">
    <path
       id="path22"
       style="fill:#ffffff;fill-opacity:1;fill-rule:nonzero;stroke:none;stroke-width:0.26458332"
       d="m 55.051934,104.53005 c -1.449586,0 -2.628636,-1.17938 -2.628636,-2.62896 0,-1.44926 1.17905,-2.628641 2.628636,-2.628641 1.449586,0 2.628635,1.179381 2.628635,2.628641 0,1.44958 -1.179049,2.62896 -2.628635,2.62896 m 0,-5.62901 c -1.654308,0 -3.000045,1.34574 -3.000045,3.00005 0,1.65431 1.345737,3.00037 3.000045,3.00037 1.653976,0 3.000044,-1.34606 3.000044,-3.00037 0,-1.65431 -1.346068,-3.00005 -3.000044,-3.00005"
       inkscape:connector-curvature="0" />
    <path
       id="path26"
       style="fill:#ffffff;fill-opacity:1;fill-rule:nonzero;stroke:none;stroke-width:0.26458332"
       d="m 55.051934,98.021569 c 0.102526,0 0.185539,-0.083 0.185539,-0.185869 v -1.48299 c 0,-0.102526 -0.08301,-0.18554 -0.185539,-0.18554 -0.102526,0 -0.18587,0.08301 -0.18587,0.18554 v 1.48299 c 0,0.10286 0.08334,0.185869 0.18587,0.185869"
       inkscape:connector-curvature="0" />
    <path
       id="path30"
       style="fill:#ffffff;fill-opacity:1;fill-rule:nonzero;stroke:none;stroke-width:0.26458332"
       d="m 55.051934,105.73817 c -0.102526,0 -0.18587,0.083 -0.18587,0.18587 v 1.48299 c 0,0.10253 0.08334,0.18554 0.18587,0.18554 0.102526,0 0.185539,-0.083 0.185539,-0.18554 v -1.48299 c 0,-0.10285 -0.08301,-0.18587 -0.185539,-0.18587"
       inkscape:connector-curvature="0" />
    <path
       id="path34"
       style="fill:#ffffff;fill-opacity:1;fill-rule:nonzero;stroke:none;stroke-width:0.26458332"
       d="m 57.083307,98.599549 c 0.03043,0.0189 0.06416,0.0278 0.09757,0.0278 0.06218,0 0.123031,-0.0311 0.158088,-0.088 l 0.780852,-1.261069 c 0.05358,-0.0873 0.02679,-0.20142 -0.06019,-0.25566 -0.08731,-0.0539 -0.201745,-0.0271 -0.255654,0.0602 l -0.780851,1.261399 c -0.05391,0.087 -0.02712,0.20141 0.06019,0.25532"
       inkscape:connector-curvature="0" />
    <path
       id="path38"
       style="fill:#ffffff;fill-opacity:1;fill-rule:nonzero;stroke:none;stroke-width:0.26458332"
       d="m 53.020727,105.16019 c -0.08698,-0.0539 -0.201744,-0.0271 -0.255653,0.0602 l -0.780852,1.26107 c -0.05391,0.0873 -0.02679,0.20142 0.06019,0.25566 0.03076,0.0188 0.06416,0.0278 0.09756,0.0278 0.06218,0 0.123031,-0.0311 0.158089,-0.088 l 0.780851,-1.2614 c 0.05391,-0.087 0.02679,-0.20141 -0.06019,-0.25532"
       inkscape:connector-curvature="0" />
    <path
       id="path42"
       style="fill:#ffffff;fill-opacity:1;fill-rule:nonzero;stroke:none;stroke-width:0.26458332"
       d="m 58.618583,100.16148 c 0.02977,0 0.05953,-0.007 0.08764,-0.0218 l 1.308365,-0.70082 c 0.09062,-0.0483 0.124685,-0.16073 0.07607,-0.25135 -0.04829,-0.09 -0.160735,-0.12436 -0.251354,-0.0757 l -1.308365,0.70048 c -0.09062,0.0483 -0.124685,0.161069 -0.07607,0.25136 0.0334,0.0625 0.09756,0.0979 0.163711,0.0979"
       inkscape:connector-curvature="0" />
    <path
       id="path46"
       style="fill:#ffffff;fill-opacity:1;fill-rule:nonzero;stroke:none;stroke-width:0.26458332"
       d="m 51.395162,103.63202 -1.309026,0.70049 c -0.09029,0.0486 -0.124354,0.16073 -0.07607,0.25135 0.03373,0.0625 0.09757,0.0982 0.164042,0.0982 0.02943,0 0.0592,-0.007 0.08731,-0.0222 l 1.308695,-0.70049 c 0.09062,-0.0486 0.124685,-0.16106 0.0764,-0.25168 -0.04862,-0.09 -0.160734,-0.12403 -0.251354,-0.0757"
       inkscape:connector-curvature="0" />
    <path
       id="path50"
       style="fill:#ffffff;fill-opacity:1;fill-rule:nonzero;stroke:none;stroke-width:0.26458332"
       d="m 60.582122,101.68399 h -5.29e-4 l -1.484312,0.004 c -0.102526,2.7e-4 -0.18554,0.0837 -0.185209,0.1862 2.65e-4,0.1022 0.08334,0.18521 0.185539,0.18521 h 5.29e-4 l 1.484313,-0.004 c 0.102526,-2.6e-4 0.185539,-0.0837 0.185208,-0.1862 -2.64e-4,-0.10252 -0.08334,-0.18521 -0.185539,-0.18521"
       inkscape:connector-curvature="0" />
    <path
       id="path54"
       style="fill:#ffffff;fill-opacity:1;fill-rule:nonzero;stroke:none;stroke-width:0.26458332"
       d="m 51.189747,101.89636 c -2.64e-4,-0.10253 -0.08334,-0.18521 -0.18587,-0.18521 h -2.64e-4 l -1.484313,0.004 c -0.102856,2.7e-4 -0.185539,0.0837 -0.185208,0.1862 2.65e-4,0.10253 0.08334,0.18521 0.185539,0.18521 h 5.29e-4 l 1.484313,-0.004 c 0.102526,-2.7e-4 0.185208,-0.0837 0.185208,-0.1862"
       inkscape:connector-curvature="0" />
    <path
       id="path58"
       style="fill:#ffffff;fill-opacity:1;fill-rule:nonzero;stroke:none;stroke-width:0.26458332"
       d="m 59.996568,104.36955 -1.303073,-0.71206 c -0.08996,-0.0493 -0.202737,-0.0162 -0.252016,0.0738 -0.04895,0.09 -0.01588,0.20307 0.07408,0.25202 l 1.302743,0.71173 c 0.02844,0.0159 0.05887,0.0232 0.08897,0.0232 0.06548,0 0.129646,-0.0351 0.163049,-0.0966 0.04928,-0.0903 0.01588,-0.20307 -0.07375,-0.25202"
       inkscape:connector-curvature="0" />
    <path
       id="path62"
       style="fill:#ffffff;fill-opacity:1;fill-rule:nonzero;stroke:none;stroke-width:0.26458332"
       d="M 51.589136,99.77436 50.286394,99.0623 c -0.08996,-0.0493 -0.203068,-0.0162 -0.252016,0.0738 -0.04928,0.09 -0.01622,0.20306 0.07375,0.25201 l 1.302742,0.71206 c 0.02844,0.0156 0.05887,0.0228 0.08897,0.0228 0.06581,0 0.129646,-0.0351 0.16338,-0.0966 0.04895,-0.09 0.01588,-0.20306 -0.07408,-0.25201"
       inkscape:connector-curvature="0" />
    <path
       id="path66"
       style="fill:#ffffff;fill-opacity:1;fill-rule:nonzero;stroke:none;stroke-width:0.26458332"
       d="m 57.355727,105.21301 c -0.05424,-0.0866 -0.168672,-0.11344 -0.255654,-0.0589 -0.08698,0.0542 -0.11344,0.169 -0.05887,0.25565 l 0.786805,1.25909 c 0.03506,0.0562 0.09558,0.087 0.157427,0.087 0.03374,0 0.06747,-0.009 0.09823,-0.0281 0.08698,-0.0542 0.11344,-0.169 0.0592,-0.25599 z"
       inkscape:connector-curvature="0" />
    <path
       id="path70"
       style="fill:#ffffff;fill-opacity:1;fill-rule:nonzero;stroke:none;stroke-width:0.26458332"
       d="m 52.74877,98.544979 c 0.03506,0.0562 0.09591,0.0873 0.157427,0.0873 0.03374,0 0.0678,-0.009 0.09823,-0.0281 0.08698,-0.0546 0.11344,-0.16933 0.0592,-0.255979 l -0.787135,-1.259089 c -0.05424,-0.0867 -0.168672,-0.11344 -0.255984,-0.0589 -0.08698,0.0542 -0.11311,0.169 -0.05887,0.25565 z"
       inkscape:connector-curvature="0" />
  </g>
</svg>
